{
  "accessors": [
    {
      "bufferView": 2,
      "componentType": 5126,
      "count": 975,
      "max": [
        0.23573312163352966,
        0.23745237290859222,
        0.009272298775613308
      ],
      "min": [
        -0.23917165398597717,
        -0.2374524027109146,
        -0.007228952832520008
      ],
      "type": "VEC3"
    },
    {
      "bufferView": 2,
      "byteOffset": 11700,
      "componentType": 5126,
      "count": 975,
      "max": [
        0.9975729584693909,
        0.9975744485855103,
        1.0
      ],
      "min": [
        -0.9975729584693909,
        -0.9975755214691162,
        -1.0
      ],
      "type": "VEC3"
    },
    {
      "bufferView": 3,
      "componentType": 5126,
      "count": 975,
      "max": [
        0.9878337383270264,
        0.9873462319374084,
        0.9975734353065491,
        1.0
      ],
      "min": [
        -0.9878331422805786,
        -0.9878343939781189,
        -0.7486708760261536,
        1.0
      ],
      "type": "VEC4"
    },
    {
      "bufferView": 1,
      "componentType": 5126,
      "count": 975,
      "max": [
        0.9792757034301758,
        0.4563611149787903
      ],
      "min": [
        0.004932567477226257,
        0.004763495177030563
      ],
      "type": "VEC2"
    },
    {
      "bufferView": 0,
      "componentType": 5125,
      "count": 4224,
      "type": "SCALAR"
    },
    {
      "bufferView": 2,
      "byteOffset": 23400,
      "componentType": 5126,
      "count": 2746,
      "max": [
        0.07364920526742935,
        0.04548965394496918,
        0.15945300459861755
      ],
      "min": [
        -0.12184888869524002,
        -0.0888594388961792,
        0.1265590339899063
      ],
      "type": "VEC3"
    },
    {
      "bufferView": 2,
      "byteOffset": 56352,
      "componentType": 5126,
      "count": 2746,
      "max": [
        0.9969460368156433,
        0.9985624551773071,
        0.9999901652336121
      ],
      "min": [
        -0.9934434294700623,
        -0.9953946471214294,
        -0.9999901652336121
      ],
      "type": "VEC3"
    },
    {
      "bufferView": 3,
      "byteOffset": 15600,
      "componentType": 5126,
      "count": 2746,
      "max": [
        0.9921714067459106,
        0.9955703616142273,
        0.9996078610420227,
        1.0
      ],
      "min": [
        -0.9989554286003113,
        -0.9889073371887207,
        -0.9994664192199707,
        -1.0
      ],
      "type": "VEC4"
    },
    {
      "bufferView": 1,
      "byteOffset": 7800,
      "componentType": 5126,
      "count": 2746,
      "max": [
        0.9995397925376892,
        0.9896111488342285
      ],
      "min": [
        0.00046021214802749455,
        0.00046021214802749455
      ],
      "type": "VEC2"
    },
    {
      "bufferView": 0,
      "byteOffset": 16896,
      "componentType": 5125,
      "count": 12000,
      "type": "SCALAR"
    },
    {
      "bufferView": 2,
      "byteOffset": 89304,
      "componentType": 5126,
      "count": 1585,
      "max": [
        0.09188283234834671,
        0.13747985661029816,
        0.08356616646051407
      ],
      "min": [
        -0.12935541570186615,
        -0.00027754000620916486,
        -0.08323445171117783
      ],
      "type": "VEC3"
    },
    {
      "bufferView": 2,
      "byteOffset": 108324,
      "componentType": 5126,
      "count": 1585,
      "max": [
        0.9969437718391418,
        1.0,
        0.9999682903289795
      ],
      "min": [
        -0.999652624130249,
        -0.999840497970581,
        -0.9973962306976318
      ],
      "type": "VEC3"
    },
    {
      "bufferView": 3,
      "byteOffset": 59536,
      "componentType": 5126,
      "count": 1585,
      "max": [
        0.9991809725761414,
        0.5557317733764648,
        0.9963318705558777,
        1.0
      ],
      "min": [
        -0.9999910593032837,
        -0.9999974370002747,
        -0.9441953301429749,
        1.0
      ],
      "type": "VEC4"
    },
    {
      "bufferView": 1,
      "byteOffset": 29768,
      "componentType": 5126,
      "count": 1585,
      "max": [
        0.7660267949104309,
        0.8892965912818909
      ],
      "min": [
        0.00046021214802749455,
        0.00046021214802749455
      ],
      "type": "VEC2"
    },
    {
      "bufferView": 0,
      "byteOffset": 64896,
      "componentType": 5125,
      "count": 8736,
      "type": "SCALAR"
    },
    {
      "bufferView": 2,
      "byteOffset": 127344,
      "componentType": 5126,
      "count": 295,
      "max": [
        -0.08026744425296783,
        0.06302918493747711,
        0.1685960292816162
      ],
      "min": [
        -0.10541980713605881,
        0.03729661926627159,
        0.1325741410255432
      ],
      "type": "VEC3"
    },
    {
      "bufferView": 2,
      "byteOffset": 130884,
      "componentType": 5126,
      "count": 295,
      "max": [
        0.9828423261642456,
        0.9938796758651733,
        0.9992597103118896
      ],
      "min": [
        -0.9834972023963928,
        -0.9957152605056763,
        -0.9884059429168701
      ],
      "type": "VEC3"
    },
    {
      "bufferView": 3,
      "byteOffset": 84896,
      "componentType": 5126,
      "count": 295,
      "max": [
        0.857627809047699,
        0.9957556128501892,
        0.9262135028839111,
        1.0
      ],
      "min": [
        -0.9115744233131409,
        -0.9988342523574829,
        -0.9977109432220459,
        -1.0
      ],
      "type": "VEC4"
    },
    {
      "bufferView": 1,
      "byteOffset": 42448,
      "componentType": 5126,
      "count": 295,
      "max": [
        0.9281056523323059,
        0.8476861715316772
      ],
      "min": [
        0.6081132292747498,
        0.504718005657196
      ],
      "type": "VEC2"
    },
    {
      "bufferView": 0,
      "byteOffset": 99840,
      "componentType": 5125,
      "count": 1458,
      "type": "SCALAR"
    }
  ],
  "asset": {
    "extras": {
      "author": "sakislaspas (https://sketchfab.com/sakislaspas)",
      "license": "CC-BY-NC-4.0 (http://creativecommons.org/licenses/by-nc/4.0/)",
      "source": "https://sketchfab.com/3d-models/dessert-64e8d14eb5af43a38b7fc3db7cf83ddf",
      "title": "Dessert"
    },
    "generator": "Sketchfab-12.68.0",
    "version": "2.0"
  },
  "bufferViews": [
    {
      "buffer": 0,
      "byteLength": 105672,
      "name": "floatBufferViews",
      "target": 34963
    },
    {
      "buffer": 0,
      "byteLength": 44808,
      "byteOffset": 105672,
      "byteStride": 8,
      "name": "floatBufferViews",
      "target": 34962
    },
    {
      "buffer": 0,
      "byteLength": 134424,
      "byteOffset": 150480,
      "byteStride": 12,
      "name": "floatBufferViews",
      "target": 34962
    },
    {
      "buffer": 0,
      "byteLength": 89616,
      "byteOffset": 284904,
      "byteStride": 16,
      "name": "floatBufferViews",
      "target": 34962
    }
  ],
  "buffers": [
    {
      "byteLength": 374520,
      "uri": "scene.bin"
    }
  ],
  "images": [
    {
      "uri": "textures/Scene_-_Root_baseColor.png"
    },
    {
      "uri": "textures/Scene_-_Root_metallicRoughness.png"
    },
    {
      "uri": "textures/Scene_-_Root_normal.png"
    }
  ],
  "materials": [
    {
      "doubleSided": true,
      "name": "Scene_-_Root",
      "normalTexture": {
        "index": 2
      },
      "occlusionTexture": {
        "index": 1
      },
      "pbrMetallicRoughness": {
        "baseColorTexture": {
          "index": 0
        },
        "metallicFactor": 0.0,
        "metallicRoughnessTexture": {
          "index": 1
        }
      }
    }
  ],
  "meshes": [
    {
      "name": "Plate__0",
      "primitives": [
        {
          "attributes": {
            "NORMAL": 1,
            "POSITION": 0,
            "TANGENT": 2,
            "TEXCOORD_0": 3
          },
          "indices": 4,
          "material": 0,
          "mode": 4
        }
      ]
    },
    {
      "name": "poura__0",
      "primitives": [
        {
          "attributes": {
            "NORMAL": 6,
            "POSITION": 5,
            "TANGENT": 7,
            "TEXCOORD_0": 8
          },
          "indices": 9,
          "material": 0,
          "mode": 4
        }
      ]
    },
    {
      "name": "Dessert_low__0",
      "primitives": [
        {
          "attributes": {
            "NORMAL": 11,
            "POSITION": 10,
            "TANGENT": 12,
            "TEXCOORD_0": 13
          },
          "indices": 14,
          "material": 0,
          "mode": 4
        }
      ]
    },
    {
      "name": "Sphere__0",
      "primitives": [
        {
          "attributes": {
            "NORMAL": 16,
            "POSITION": 15,
            "TANGENT": 17,
            "TEXCOORD_0": 18
          },
          "indices": 19,
          "material": 0,
          "mode": 4
        }
      ]
    }
  ],
  "nodes": [
    {
      "children": [
        1
      ],
      "matrix": [
        1.0,
        0.0,
        0.0,
        0.0,
        0.0,
        2.220446049250313e-16,
        -1.0,
        0.0,
        0.0,
        1.0,
        2.220446049250313e-16,
        0.0,
        0.0,
        0.0,
        0.0,
        1.0
      ],
      "name": "Sketchfab_model"
    },
    {
      "children": [
        2
      ],
      "matrix": [
        1.0,
        0.0,
        0.0,
        0.0,
        0.0,
        0.0,
        1.0,
        0.0,
        0.0,
        -1.0,
        0.0,
        0.0,
        0.0,
        0.0,
        0.0,
        1.0
      ],
      "name": "2aa25bc4bb024aa4a369b17c503415f3.fbx"
    },
    {
      "children": [
        3,
        5,
        7,
        9
      ],
      "name": "RootNode"
    },
    {
      "children": [
        4
      ],
      "matrix": [
        100.0,
        0.0,
        0.0,
        0.0,
        0.0,
        -1.629206793918314e-05,
        -99.99999999999868,
        0.0,
        0.0,
        99.99999999999868,
        -1.629206793918314e-05,
        0.0,
        0.0,
        0.0,
        0.0,
        1.0
      ],
      "name": "Plate"
    },
    {
      "mesh": 0,
      "name": "Plate__0"
    },
    {
      "children": [
        6
      ],
      "matrix": [
        100.0,
        0.0,
        0.0,
        0.0,
        0.0,
        -1.629206793918314e-05,
        -99.99999999999868,
        0.0,
        0.0,
        99.99999999999868,
        -1.629206793918314e-05,
        0.0,
        0.0,
        0.0,
        0.0,
        1.0
      ],
      "name": "poura"
    },
    {
      "mesh": 1,
      "name": "poura__0"
    },
    {
      "children": [
        8
      ],
      "matrix": [
        100.0,
        0.0,
        0.0,
        0.0,
        0.0,
        99.99999999999866,
        1.6292067073209114e-05,
        0.0,
        0.0,
        -1.6292067073209114e-05,
        99.99999999999866,
        0.0,
        0.0,
        0.0,
        0.0,
        1.0
      ],
      "name": "Dessert_low"
    },
    {
      "mesh": 2,
      "name": "Dessert_low__0"
    },
    {
      "children": [
        10
      ],
      "matrix": [
        100.0,
        0.0,
        0.0,
        0.0,
        0.0,
        -1.629206793918314e-05,
        -99.99999999999868,
        0.0,
        0.0,
        99.99999999999868,
        -1.629206793918314e-05,
        0.0,
        0.0,
        0.0,
        0.0,
        1.0
      ],
      "name": "Sphere"
    },
    {
      "mesh": 3,
      "name": "Sphere__0"
    }
  ],
  "samplers": [
    {
      "magFilter": 9729,
      "minFilter": 9987,
      "wrapS": 10497,
      "wrapT": 10497
    }
  ],
  "scene": 0,
  "scenes": [
    {
      "name": "Sketchfab_Scene",
      "nodes": [
        0
      ]
    }
  ],
  "textures": [
    {
      "sampler": 0,
      "source": 0
    },
    {
      "sampler": 0,
      "source": 1
    },
    {
      "sampler": 0,
      "source": 2
    }
  ]
}
